<svg width="89" height="44" viewBox="0 0 89 44" fill="none" xmlns="http://www.w3.org/2000/svg">
<g clip-path="url(#clip0_23_527)">
<path d="M9.05801 34.6243C5.71467 34.6243 3.39401 33.523 2.09601 31.3203C0.837341 29.0783 0.208008 26.0497 0.208008 22.2343C0.208008 19.6777 0.483341 17.4553 1.03401 15.5673C1.58467 13.6793 2.50901 12.224 3.80701 11.2013C5.10501 10.1393 6.85534 9.60832 9.05801 9.60832C10.6707 9.60832 11.9687 9.84432 12.952 10.3163C13.9747 10.749 14.7613 11.2603 15.312 11.8503C15.8627 12.4403 16.2363 12.9713 16.433 13.4433C16.6297 13.876 16.728 14.0923 16.728 14.0923H16.846V9.60832H25.342V34.0343H18.144L16.846 30.7303H16.728C16.7673 30.7303 16.669 30.927 16.433 31.3203C16.197 31.7137 15.784 32.166 15.194 32.6773C14.6433 33.1887 13.8567 33.641 12.834 34.0343C11.8507 34.4277 10.592 34.6243 9.05801 34.6243ZM12.539 27.8393C13.8763 27.8393 14.84 27.5837 15.43 27.0723C16.0593 26.5217 16.4527 25.8137 16.61 24.9483C16.7673 24.083 16.846 23.198 16.846 22.2933C16.846 21.3493 16.7673 20.4643 16.61 19.6383C16.4527 18.773 16.0593 18.0847 15.43 17.5733C14.84 17.062 13.8763 16.8063 12.539 16.8063C11.2017 16.8063 10.2183 17.0817 9.58901 17.6323C8.99901 18.1437 8.62534 18.8123 8.46801 19.6383C8.31067 20.4643 8.23201 21.3493 8.23201 22.2933C8.23201 23.2373 8.31067 24.142 8.46801 25.0073C8.62534 25.8333 8.99901 26.5217 9.58901 27.0723C10.2183 27.5837 11.2017 27.8393 12.539 27.8393Z" fill="black"/>
<path d="M30.0897 34.0343V0.817322H43.6007C47.9273 0.817322 51.3493 1.58432 53.8667 3.11832C56.384 4.65232 57.6427 7.22866 57.6427 10.8473C57.6427 13.8367 56.974 16.1573 55.6367 17.8093C54.3387 19.4613 52.5687 20.2873 50.3267 20.2873C51.428 20.2873 52.254 20.543 52.8047 21.0543C53.3947 21.5263 53.8077 22.1557 54.0437 22.9423C54.319 23.6897 54.5353 24.4567 54.6927 25.2433C54.85 26.03 55.0663 26.738 55.3417 27.3673C55.617 27.9573 56.0497 28.3507 56.6397 28.5473C57.269 28.7047 58.154 28.5473 59.2947 28.0753V32.5593C58.1933 33.5033 56.974 34.113 55.6367 34.3883C54.2993 34.703 53.021 34.6243 51.8017 34.1523C50.6217 33.7197 49.6383 32.874 48.8517 31.6153C48.065 30.3173 47.6717 28.567 47.6717 26.3643C47.6717 25.4203 47.593 24.5747 47.4357 23.8273C47.3177 23.0407 46.9637 22.3917 46.3737 21.8803C45.7837 21.369 44.8593 21.0347 43.6007 20.8773C42.342 20.6807 40.5917 20.6807 38.3497 20.8773V34.0343H30.0897ZM38.3497 15.0953H42.4797C44.289 15.0953 45.764 15.0757 46.9047 15.0363C48.0453 14.997 48.891 14.7413 49.4417 14.2693C50.0317 13.758 50.3267 12.8533 50.3267 11.5553C50.3267 10.1 49.9727 9.09699 49.2647 8.54632C48.596 7.95632 47.593 7.62199 46.2557 7.54332C44.9577 7.46465 43.345 7.42532 41.4177 7.42532H38.3497V15.0953Z" fill="black"/>
<path d="M79.526 34.6243C82.8693 34.6243 85.19 33.523 86.488 31.3203C87.7467 29.0783 88.376 26.0497 88.376 22.2343C88.376 19.6777 88.1007 17.4553 87.55 15.5673C86.9993 13.6793 86.075 12.224 84.777 11.2013C83.479 10.1393 81.7287 9.60832 79.526 9.60832C77.9133 9.60832 76.6153 9.84432 75.632 10.3163C74.6093 10.749 73.8227 11.2603 73.272 11.8503C72.7213 12.4403 72.3477 12.9713 72.151 13.4433C71.9543 13.876 71.856 14.0923 71.856 14.0923H71.738V9.60832H63.242V34.0343H70.44L71.738 30.7303H71.856C71.8167 30.7303 71.915 30.927 72.151 31.3203C72.387 31.7137 72.8 32.166 73.39 32.6773C73.9407 33.1887 74.7273 33.641 75.75 34.0343C76.7333 34.4277 77.992 34.6243 79.526 34.6243ZM76.045 27.8393C74.7077 27.8393 73.744 27.5837 73.154 27.0723C72.5247 26.5217 72.1313 25.8137 71.974 24.9483C71.8167 24.083 71.738 23.198 71.738 22.2933C71.738 21.3493 71.8167 20.4643 71.974 19.6383C72.1313 18.773 72.5247 18.0847 73.154 17.5733C73.744 17.062 74.7077 16.8063 76.045 16.8063C77.3823 16.8063 78.3657 17.0817 78.995 17.6323C79.585 18.1437 79.9587 18.8123 80.116 19.6383C80.2733 20.4643 80.352 21.3493 80.352 22.2933C80.352 23.2373 80.2733 24.142 80.116 25.0073C79.9587 25.8333 79.585 26.5217 78.995 27.0723C78.3657 27.5837 77.3823 27.8393 76.045 27.8393Z" fill="black"/>
</g>
<defs>
<clipPath id="clip0_23_527">
<rect width="88.168" height="42.217" fill="white" transform="translate(0.208008 0.817322)"/>
</clipPath>
</defs>
</svg>
