<svg width="90" height="34" viewBox="0 0 90 34" fill="none" xmlns="http://www.w3.org/2000/svg">
<path d="M9.76602 33.8122C6.42268 33.8122 4.10202 32.7109 2.80402 30.5082C1.54535 28.2662 0.916016 25.2375 0.916016 21.4222C0.916016 18.8655 1.19135 16.6432 1.74202 14.7552C2.29268 12.8672 3.21702 11.4119 4.51502 10.3892C5.81302 9.32719 7.56335 8.79619 9.76602 8.79619C11.3787 8.79619 12.6767 9.03219 13.66 9.50419C14.6827 9.93685 15.4693 10.4482 16.02 11.0382C16.5707 11.6282 16.9444 12.1592 17.141 12.6312C17.3377 13.0639 17.436 13.2802 17.436 13.2802H17.554V8.79619H26.05V33.2222H18.852L17.554 29.9182H17.436C17.4753 29.9182 17.377 30.1149 17.141 30.5082C16.905 30.9015 16.492 31.3539 15.902 31.8652C15.3513 32.3765 14.5647 32.8289 13.542 33.2222C12.5587 33.6155 11.3 33.8122 9.76602 33.8122ZM13.247 27.0272C14.5843 27.0272 15.548 26.7715 16.138 26.2602C16.7673 25.7095 17.1607 25.0015 17.318 24.1362C17.4753 23.2709 17.554 22.3859 17.554 21.4812C17.554 20.5372 17.4753 19.6522 17.318 18.8262C17.1607 17.9609 16.7673 17.2725 16.138 16.7612C15.548 16.2499 14.5843 15.9942 13.247 15.9942C11.9097 15.9942 10.9263 16.2695 10.297 16.8202C9.70702 17.3315 9.33335 18.0002 9.17602 18.8262C9.01868 19.6522 8.94002 20.5372 8.94002 21.4812C8.94002 22.4252 9.01868 23.3299 9.17602 24.1952C9.33335 25.0212 9.70702 25.7095 10.297 26.2602C10.9263 26.7715 11.9097 27.0272 13.247 27.0272Z" fill="black"/>
<path d="M30.7977 33.2222V0.00518799H44.3087C48.6353 0.00518799 52.0573 0.772187 54.5747 2.30619C57.092 3.84019 58.3507 6.41652 58.3507 10.0352C58.3507 13.0245 57.682 15.3452 56.3447 16.9972C55.0467 18.6492 53.2767 19.4752 51.0347 19.4752C52.136 19.4752 52.962 19.7309 53.5127 20.2422C54.1027 20.7142 54.5157 21.3435 54.7517 22.1302C55.027 22.8775 55.2433 23.6445 55.4007 24.4312C55.558 25.2179 55.7743 25.9259 56.0497 26.5552C56.325 27.1452 56.7577 27.5385 57.3477 27.7352C57.977 27.8925 58.862 27.7352 60.0027 27.2632V31.7472C58.9013 32.6912 57.682 33.3009 56.3447 33.5762C55.0073 33.8909 53.729 33.8122 52.5097 33.3402C51.3297 32.9075 50.3463 32.0619 49.5597 30.8032C48.773 29.5052 48.3797 27.7549 48.3797 25.5522C48.3797 24.6082 48.301 23.7625 48.1437 23.0152C48.0257 22.2285 47.6717 21.5795 47.0817 21.0682C46.4917 20.5569 45.5673 20.2225 44.3087 20.0652C43.05 19.8685 41.2997 19.8685 39.0577 20.0652V33.2222H30.7977ZM39.0577 14.2832H43.1877C44.997 14.2832 46.472 14.2635 47.6127 14.2242C48.7533 14.1849 49.599 13.9292 50.1497 13.4572C50.7397 12.9459 51.0347 12.0412 51.0347 10.7432C51.0347 9.28786 50.6807 8.28486 49.9727 7.73419C49.304 7.14419 48.301 6.80985 46.9637 6.73119C45.6657 6.65252 44.053 6.61319 42.1257 6.61319H39.0577V14.2832Z" fill="black"/>
<path d="M80.234 33.8122C83.5774 33.8122 85.898 32.7109 87.196 30.5082C88.4547 28.2662 89.084 25.2375 89.084 21.4222C89.084 18.8655 88.8087 16.6432 88.258 14.7552C87.7074 12.8672 86.783 11.4119 85.485 10.3892C84.187 9.32719 82.4367 8.79619 80.234 8.79619C78.6214 8.79619 77.3233 9.03219 76.34 9.50419C75.3173 9.93685 74.5307 10.4482 73.98 11.0382C73.4294 11.6282 73.0557 12.1592 72.859 12.6312C72.6623 13.0639 72.564 13.2802 72.564 13.2802H72.446V8.79619H63.95V33.2222H71.148L72.446 29.9182H72.564C72.5247 29.9182 72.623 30.1149 72.859 30.5082C73.095 30.9015 73.508 31.3539 74.098 31.8652C74.6487 32.3765 75.4353 32.8289 76.458 33.2222C77.4413 33.6155 78.7 33.8122 80.234 33.8122ZM76.753 27.0272C75.4157 27.0272 74.452 26.7715 73.862 26.2602C73.2327 25.7095 72.8393 25.0015 72.682 24.1362C72.5247 23.2709 72.446 22.3859 72.446 21.4812C72.446 20.5372 72.5247 19.6522 72.682 18.8262C72.8393 17.9609 73.2327 17.2725 73.862 16.7612C74.452 16.2499 75.4157 15.9942 76.753 15.9942C78.0903 15.9942 79.0737 16.2695 79.703 16.8202C80.293 17.3315 80.6667 18.0002 80.824 18.8262C80.9813 19.6522 81.06 20.5372 81.06 21.4812C81.06 22.4252 80.9813 23.3299 80.824 24.1952C80.6667 25.0212 80.293 25.7095 79.703 26.2602C79.0737 26.7715 78.0903 27.0272 76.753 27.0272Z" fill="black"/>
</svg>
