<svg width="89" height="34" viewBox="0 0 89 34" fill="none" xmlns="http://www.w3.org/2000/svg">
<path d="M9.26602 33.807C5.92268 33.807 3.60202 32.7057 2.30402 30.503C1.04535 28.261 0.416016 25.2323 0.416016 21.417C0.416016 18.8603 0.691349 16.638 1.24202 14.75C1.79268 12.862 2.71702 11.4067 4.01502 10.384C5.31302 9.322 7.06335 8.791 9.26602 8.791C10.8787 8.791 12.1767 9.027 13.16 9.499C14.1827 9.93167 14.9693 10.443 15.52 11.033C16.0707 11.623 16.4444 12.154 16.641 12.626C16.8377 13.0587 16.936 13.275 16.936 13.275H17.054V8.791H25.55V33.217H18.352L17.054 29.913H16.936C16.9753 29.913 16.877 30.1097 16.641 30.503C16.405 30.8963 15.992 31.3487 15.402 31.86C14.8513 32.3713 14.0647 32.8237 13.042 33.217C12.0587 33.6103 10.8 33.807 9.26602 33.807ZM12.747 27.022C14.0843 27.022 15.048 26.7663 15.638 26.255C16.2673 25.7043 16.6607 24.9963 16.818 24.131C16.9753 23.2657 17.054 22.3807 17.054 21.476C17.054 20.532 16.9753 19.647 16.818 18.821C16.6607 17.9557 16.2673 17.2673 15.638 16.756C15.048 16.2447 14.0843 15.989 12.747 15.989C11.4097 15.989 10.4263 16.2643 9.79702 16.815C9.20702 17.3263 8.83335 17.995 8.67602 18.821C8.51868 19.647 8.44002 20.532 8.44002 21.476C8.44002 22.42 8.51868 23.3247 8.67602 24.19C8.83335 25.016 9.20702 25.7043 9.79702 26.255C10.4263 26.7663 11.4097 27.022 12.747 27.022Z" fill="black"/>
<path d="M30.2977 33.217V0H43.8087C48.1353 0 51.5573 0.766999 54.0747 2.301C56.592 3.835 57.8507 6.41133 57.8507 10.03C57.8507 13.0193 57.182 15.34 55.8447 16.992C54.5467 18.644 52.7767 19.47 50.5347 19.47C51.636 19.47 52.462 19.7257 53.0127 20.237C53.6027 20.709 54.0157 21.3383 54.2517 22.125C54.527 22.8723 54.7433 23.6393 54.9007 24.426C55.058 25.2127 55.2743 25.9207 55.5497 26.55C55.825 27.14 56.2577 27.5333 56.8477 27.73C57.477 27.8873 58.362 27.73 59.5027 27.258V31.742C58.4013 32.686 57.182 33.2957 55.8447 33.571C54.5073 33.8857 53.229 33.807 52.0097 33.335C50.8297 32.9023 49.8463 32.0567 49.0597 30.798C48.273 29.5 47.8797 27.7497 47.8797 25.547C47.8797 24.603 47.801 23.7573 47.6437 23.01C47.5257 22.2233 47.1717 21.5743 46.5817 21.063C45.9917 20.5517 45.0673 20.2173 43.8087 20.06C42.55 19.8633 40.7997 19.8633 38.5577 20.06V33.217H30.2977ZM38.5577 14.278H42.6877C44.497 14.278 45.972 14.2583 47.1127 14.219C48.2533 14.1797 49.099 13.924 49.6497 13.452C50.2397 12.9407 50.5347 12.036 50.5347 10.738C50.5347 9.28267 50.1807 8.27967 49.4727 7.729C48.804 7.139 47.801 6.80467 46.4637 6.726C45.1657 6.64733 43.553 6.608 41.6257 6.608H38.5577V14.278Z" fill="black"/>
<path d="M79.734 33.807C83.0774 33.807 85.398 32.7057 86.696 30.503C87.9547 28.261 88.584 25.2323 88.584 21.417C88.584 18.8603 88.3087 16.638 87.758 14.75C87.2074 12.862 86.283 11.4067 84.985 10.384C83.687 9.322 81.9367 8.791 79.734 8.791C78.1214 8.791 76.8233 9.027 75.84 9.499C74.8173 9.93167 74.0307 10.443 73.48 11.033C72.9294 11.623 72.5557 12.154 72.359 12.626C72.1623 13.0587 72.064 13.275 72.064 13.275H71.946V8.791H63.45V33.217H70.648L71.946 29.913H72.064C72.0247 29.913 72.123 30.1097 72.359 30.503C72.595 30.8963 73.008 31.3487 73.598 31.86C74.1487 32.3713 74.9353 32.8237 75.958 33.217C76.9413 33.6103 78.2 33.807 79.734 33.807ZM76.253 27.022C74.9157 27.022 73.952 26.7663 73.362 26.255C72.7327 25.7043 72.3393 24.9963 72.182 24.131C72.0247 23.2657 71.946 22.3807 71.946 21.476C71.946 20.532 72.0247 19.647 72.182 18.821C72.3393 17.9557 72.7327 17.2673 73.362 16.756C73.952 16.2447 74.9157 15.989 76.253 15.989C77.5903 15.989 78.5737 16.2643 79.203 16.815C79.793 17.3263 80.1667 17.995 80.324 18.821C80.4813 19.647 80.56 20.532 80.56 21.476C80.56 22.42 80.4813 23.3247 80.324 24.19C80.1667 25.016 79.793 25.7043 79.203 26.255C78.5737 26.7663 77.5903 27.022 76.253 27.022Z" fill="black"/>
</svg>
