<svg width="89" height="35" viewBox="0 0 89 35" fill="none" xmlns="http://www.w3.org/2000/svg">
<path d="M9.26602 34.7208C5.92268 34.7208 3.60202 33.6195 2.30402 31.4168C1.04535 29.1748 0.416016 26.1462 0.416016 22.3308C0.416016 19.7742 0.691349 17.5518 1.24202 15.6638C1.79268 13.7758 2.71702 12.3205 4.01502 11.2978C5.31302 10.2358 7.06335 9.70482 9.26602 9.70482C10.8787 9.70482 12.1767 9.94082 13.16 10.4128C14.1827 10.8455 14.9693 11.3568 15.52 11.9468C16.0707 12.5368 16.4444 13.0678 16.641 13.5398C16.8377 13.9725 16.936 14.1888 16.936 14.1888H17.054V9.70482H25.55V34.1308H18.352L17.054 30.8268H16.936C16.9753 30.8268 16.877 31.0235 16.641 31.4168C16.405 31.8102 15.992 32.2625 15.402 32.7738C14.8513 33.2852 14.0647 33.7375 13.042 34.1308C12.0587 34.5242 10.8 34.7208 9.26602 34.7208ZM12.747 27.9358C14.0843 27.9358 15.048 27.6802 15.638 27.1688C16.2673 26.6182 16.6607 25.9102 16.818 25.0448C16.9753 24.1795 17.054 23.2945 17.054 22.3898C17.054 21.4458 16.9753 20.5608 16.818 19.7348C16.6607 18.8695 16.2673 18.1812 15.638 17.6698C15.048 17.1585 14.0843 16.9028 12.747 16.9028C11.4097 16.9028 10.4263 17.1782 9.79702 17.7288C9.20702 18.2402 8.83335 18.9088 8.67602 19.7348C8.51868 20.5608 8.44002 21.4458 8.44002 22.3898C8.44002 23.3338 8.51868 24.2385 8.67602 25.1038C8.83335 25.9298 9.20702 26.6182 9.79702 27.1688C10.4263 27.6802 11.4097 27.9358 12.747 27.9358Z" fill="black"/>
<path d="M30.2977 34.1308V0.913818H43.8087C48.1353 0.913818 51.5573 1.68082 54.0747 3.21482C56.592 4.74882 57.8507 7.32515 57.8507 10.9438C57.8507 13.9332 57.182 16.2538 55.8447 17.9058C54.5467 19.5578 52.7767 20.3838 50.5347 20.3838C51.636 20.3838 52.462 20.6395 53.0127 21.1508C53.6027 21.6228 54.0157 22.2522 54.2517 23.0388C54.527 23.7862 54.7433 24.5532 54.9007 25.3398C55.058 26.1265 55.2743 26.8345 55.5497 27.4638C55.825 28.0538 56.2577 28.4472 56.8477 28.6438C57.477 28.8012 58.362 28.6438 59.5027 28.1718V32.6558C58.4013 33.5998 57.182 34.2095 55.8447 34.4848C54.5073 34.7995 53.229 34.7208 52.0097 34.2488C50.8297 33.8162 49.8463 32.9705 49.0597 31.7118C48.273 30.4138 47.8797 28.6635 47.8797 26.4608C47.8797 25.5168 47.801 24.6712 47.6437 23.9238C47.5257 23.1372 47.1717 22.4882 46.5817 21.9768C45.9917 21.4655 45.0673 21.1312 43.8087 20.9738C42.55 20.7772 40.7997 20.7772 38.5577 20.9738V34.1308H30.2977ZM38.5577 15.1918H42.6877C44.497 15.1918 45.972 15.1722 47.1127 15.1328C48.2533 15.0935 49.099 14.8378 49.6497 14.3658C50.2397 13.8545 50.5347 12.9498 50.5347 11.6518C50.5347 10.1965 50.1807 9.19349 49.4727 8.64282C48.804 8.05282 47.801 7.71848 46.4637 7.63982C45.1657 7.56115 43.553 7.52182 41.6257 7.52182H38.5577V15.1918Z" fill="black"/>
<path d="M79.734 34.7208C83.0774 34.7208 85.398 33.6195 86.696 31.4168C87.9547 29.1748 88.584 26.1462 88.584 22.3308C88.584 19.7742 88.3087 17.5518 87.758 15.6638C87.2074 13.7758 86.283 12.3205 84.985 11.2978C83.687 10.2358 81.9367 9.70482 79.734 9.70482C78.1214 9.70482 76.8233 9.94082 75.84 10.4128C74.8173 10.8455 74.0307 11.3568 73.48 11.9468C72.9294 12.5368 72.5557 13.0678 72.359 13.5398C72.1623 13.9725 72.064 14.1888 72.064 14.1888H71.946V9.70482H63.45V34.1308H70.648L71.946 30.8268H72.064C72.0247 30.8268 72.123 31.0235 72.359 31.4168C72.595 31.8102 73.008 32.2625 73.598 32.7738C74.1487 33.2852 74.9353 33.7375 75.958 34.1308C76.9413 34.5242 78.2 34.7208 79.734 34.7208ZM76.253 27.9358C74.9157 27.9358 73.952 27.6802 73.362 27.1688C72.7327 26.6182 72.3393 25.9102 72.182 25.0448C72.0247 24.1795 71.946 23.2945 71.946 22.3898C71.946 21.4458 72.0247 20.5608 72.182 19.7348C72.3393 18.8695 72.7327 18.1812 73.362 17.6698C73.952 17.1585 74.9157 16.9028 76.253 16.9028C77.5903 16.9028 78.5737 17.1782 79.203 17.7288C79.793 18.2402 80.1667 18.9088 80.324 19.7348C80.4813 20.5608 80.56 21.4458 80.56 22.3898C80.56 23.3338 80.4813 24.2385 80.324 25.1038C80.1667 25.9298 79.793 26.6182 79.203 27.1688C78.5737 27.6802 77.5903 27.9358 76.253 27.9358Z" fill="black"/>
</svg>
