<svg width="89" height="34" viewBox="0 0 89 34" fill="none" xmlns="http://www.w3.org/2000/svg">
<path d="M8.85 33.807C5.50667 33.807 3.186 32.7057 1.888 30.503C0.629333 28.261 0 25.2323 0 21.417C0 18.8603 0.275333 16.638 0.826 14.75C1.37667 12.862 2.301 11.4067 3.599 10.384C4.897 9.322 6.64733 8.791 8.85 8.791C10.4627 8.791 11.7607 9.027 12.744 9.499C13.7667 9.93167 14.5533 10.443 15.104 11.033C15.6547 11.623 16.0283 12.154 16.225 12.626C16.4217 13.0587 16.52 13.275 16.52 13.275H16.638V8.791H25.134V33.217H17.936L16.638 29.913H16.52C16.5593 29.913 16.461 30.1097 16.225 30.503C15.989 30.8963 15.576 31.3487 14.986 31.86C14.4353 32.3713 13.6487 32.8237 12.626 33.217C11.6427 33.6103 10.384 33.807 8.85 33.807ZM12.331 27.022C13.6683 27.022 14.632 26.7663 15.222 26.255C15.8513 25.7043 16.2447 24.9963 16.402 24.131C16.5593 23.2657 16.638 22.3807 16.638 21.476C16.638 20.532 16.5593 19.647 16.402 18.821C16.2447 17.9557 15.8513 17.2673 15.222 16.756C14.632 16.2447 13.6683 15.989 12.331 15.989C10.9937 15.989 10.0103 16.2643 9.381 16.815C8.791 17.3263 8.41733 17.995 8.26 18.821C8.10267 19.647 8.024 20.532 8.024 21.476C8.024 22.42 8.10267 23.3247 8.26 24.19C8.41733 25.016 8.791 25.7043 9.381 26.255C10.0103 26.7663 10.9937 27.022 12.331 27.022Z" fill="black"/>
<path d="M29.8817 33.217V0H43.3927C47.7193 0 51.1413 0.766999 53.6587 2.301C56.176 3.835 57.4347 6.41133 57.4347 10.03C57.4347 13.0193 56.766 15.34 55.4287 16.992C54.1307 18.644 52.3607 19.47 50.1187 19.47C51.22 19.47 52.046 19.7257 52.5967 20.237C53.1867 20.709 53.5997 21.3383 53.8357 22.125C54.111 22.8723 54.3273 23.6393 54.4847 24.426C54.642 25.2127 54.8583 25.9207 55.1337 26.55C55.409 27.14 55.8417 27.5333 56.4317 27.73C57.061 27.8873 57.946 27.73 59.0867 27.258V31.742C57.9853 32.686 56.766 33.2957 55.4287 33.571C54.0913 33.8857 52.813 33.807 51.5937 33.335C50.4137 32.9023 49.4303 32.0567 48.6437 30.798C47.857 29.5 47.4637 27.7497 47.4637 25.547C47.4637 24.603 47.385 23.7573 47.2277 23.01C47.1097 22.2233 46.7557 21.5743 46.1657 21.063C45.5757 20.5517 44.6513 20.2173 43.3927 20.06C42.134 19.8633 40.3837 19.8633 38.1417 20.06V33.217H29.8817ZM38.1417 14.278H42.2717C44.081 14.278 45.556 14.2583 46.6967 14.219C47.8373 14.1797 48.683 13.924 49.2337 13.452C49.8237 12.9407 50.1187 12.036 50.1187 10.738C50.1187 9.28267 49.7647 8.27967 49.0567 7.729C48.388 7.139 47.385 6.80467 46.0477 6.726C44.7497 6.64733 43.137 6.608 41.2097 6.608H38.1417V14.278Z" fill="black"/>
<path d="M79.318 33.807C82.6613 33.807 84.982 32.7057 86.28 30.503C87.5387 28.261 88.168 25.2323 88.168 21.417C88.168 18.8603 87.8927 16.638 87.342 14.75C86.7913 12.862 85.867 11.4067 84.569 10.384C83.271 9.322 81.5207 8.791 79.318 8.791C77.7053 8.791 76.4073 9.027 75.424 9.499C74.4013 9.93167 73.6147 10.443 73.064 11.033C72.5133 11.623 72.1397 12.154 71.943 12.626C71.7463 13.0587 71.648 13.275 71.648 13.275H71.53V8.791H63.034V33.217H70.232L71.53 29.913H71.648C71.6087 29.913 71.707 30.1097 71.943 30.503C72.179 30.8963 72.592 31.3487 73.182 31.86C73.7327 32.3713 74.5193 32.8237 75.542 33.217C76.5253 33.6103 77.784 33.807 79.318 33.807ZM75.837 27.022C74.4997 27.022 73.536 26.7663 72.946 26.255C72.3167 25.7043 71.9233 24.9963 71.766 24.131C71.6087 23.2657 71.53 22.3807 71.53 21.476C71.53 20.532 71.6087 19.647 71.766 18.821C71.9233 17.9557 72.3167 17.2673 72.946 16.756C73.536 16.2447 74.4997 15.989 75.837 15.989C77.1743 15.989 78.1577 16.2643 78.787 16.815C79.377 17.3263 79.7507 17.995 79.908 18.821C80.0653 19.647 80.144 20.532 80.144 21.476C80.144 22.42 80.0653 23.3247 79.908 24.19C79.7507 25.016 79.377 25.7043 78.787 26.255C78.1577 26.7663 77.1743 27.022 75.837 27.022Z" fill="black"/>
</svg>
