<svg width="90" height="35" viewBox="0 0 90 35" fill="none" xmlns="http://www.w3.org/2000/svg">
<path d="M9.76602 34.7209C6.42268 34.7209 4.10202 33.6195 2.80402 31.4169C1.54535 29.1749 0.916016 26.1462 0.916016 22.3309C0.916016 19.7742 1.19135 17.5519 1.74202 15.6639C2.29268 13.7759 3.21702 12.3205 4.51502 11.2979C5.81302 10.2359 7.56335 9.70488 9.76602 9.70488C11.3787 9.70488 12.6767 9.94088 13.66 10.4129C14.6827 10.8455 15.4693 11.3569 16.02 11.9469C16.5707 12.5369 16.9444 13.0679 17.141 13.5399C17.3377 13.9725 17.436 14.1889 17.436 14.1889H17.554V9.70488H26.05V34.1309H18.852L17.554 30.8269H17.436C17.4753 30.8269 17.377 31.0235 17.141 31.4169C16.905 31.8102 16.492 32.2625 15.902 32.7739C15.3513 33.2852 14.5647 33.7375 13.542 34.1309C12.5587 34.5242 11.3 34.7209 9.76602 34.7209ZM13.247 27.9359C14.5843 27.9359 15.548 27.6802 16.138 27.1689C16.7673 26.6182 17.1607 25.9102 17.318 25.0449C17.4753 24.1795 17.554 23.2945 17.554 22.3899C17.554 21.4459 17.4753 20.5609 17.318 19.7349C17.1607 18.8695 16.7673 18.1812 16.138 17.6699C15.548 17.1585 14.5843 16.9029 13.247 16.9029C11.9097 16.9029 10.9263 17.1782 10.297 17.7289C9.70702 18.2402 9.33335 18.9089 9.17602 19.7349C9.01868 20.5609 8.94002 21.4459 8.94002 22.3899C8.94002 23.3339 9.01868 24.2385 9.17602 25.1039C9.33335 25.9299 9.70702 26.6182 10.297 27.1689C10.9263 27.6802 11.9097 27.9359 13.247 27.9359Z" fill="black"/>
<path d="M30.7977 34.1309V0.913879H44.3087C48.6353 0.913879 52.0573 1.68088 54.5747 3.21488C57.092 4.74888 58.3507 7.32521 58.3507 10.9439C58.3507 13.9332 57.682 16.2539 56.3447 17.9059C55.0467 19.5579 53.2767 20.3839 51.0347 20.3839C52.136 20.3839 52.962 20.6395 53.5127 21.1509C54.1027 21.6229 54.5157 22.2522 54.7517 23.0389C55.027 23.7862 55.2433 24.5532 55.4007 25.3399C55.558 26.1265 55.7743 26.8345 56.0497 27.4639C56.325 28.0539 56.7577 28.4472 57.3477 28.6439C57.977 28.8012 58.862 28.6439 60.0027 28.1719V32.6559C58.9013 33.5999 57.682 34.2095 56.3447 34.4849C55.0073 34.7995 53.729 34.7209 52.5097 34.2489C51.3297 33.8162 50.3463 32.9705 49.5597 31.7119C48.773 30.4139 48.3797 28.6635 48.3797 26.4609C48.3797 25.5169 48.301 24.6712 48.1437 23.9239C48.0257 23.1372 47.6717 22.4882 47.0817 21.9769C46.4917 21.4655 45.5673 21.1312 44.3087 20.9739C43.05 20.7772 41.2997 20.7772 39.0577 20.9739V34.1309H30.7977ZM39.0577 15.1919H43.1877C44.997 15.1919 46.472 15.1722 47.6127 15.1329C48.7533 15.0935 49.599 14.8379 50.1497 14.3659C50.7397 13.8545 51.0347 12.9499 51.0347 11.6519C51.0347 10.1965 50.6807 9.19355 49.9727 8.64288C49.304 8.05288 48.301 7.71855 46.9637 7.63988C45.6657 7.56121 44.053 7.52188 42.1257 7.52188H39.0577V15.1919Z" fill="black"/>
<path d="M80.234 34.7209C83.5774 34.7209 85.898 33.6195 87.196 31.4169C88.4547 29.1749 89.084 26.1462 89.084 22.3309C89.084 19.7742 88.8087 17.5519 88.258 15.6639C87.7074 13.7759 86.783 12.3205 85.485 11.2979C84.187 10.2359 82.4367 9.70488 80.234 9.70488C78.6214 9.70488 77.3233 9.94088 76.34 10.4129C75.3173 10.8455 74.5307 11.3569 73.98 11.9469C73.4294 12.5369 73.0557 13.0679 72.859 13.5399C72.6623 13.9725 72.564 14.1889 72.564 14.1889H72.446V9.70488H63.95V34.1309H71.148L72.446 30.8269H72.564C72.5247 30.8269 72.623 31.0235 72.859 31.4169C73.095 31.8102 73.508 32.2625 74.098 32.7739C74.6487 33.2852 75.4353 33.7375 76.458 34.1309C77.4413 34.5242 78.7 34.7209 80.234 34.7209ZM76.753 27.9359C75.4157 27.9359 74.452 27.6802 73.862 27.1689C73.2327 26.6182 72.8393 25.9102 72.682 25.0449C72.5247 24.1795 72.446 23.2945 72.446 22.3899C72.446 21.4459 72.5247 20.5609 72.682 19.7349C72.8393 18.8695 73.2327 18.1812 73.862 17.6699C74.452 17.1585 75.4157 16.9029 76.753 16.9029C78.0903 16.9029 79.0737 17.1782 79.703 17.7289C80.293 18.2402 80.6667 18.9089 80.824 19.7349C80.9813 20.5609 81.06 21.4459 81.06 22.3899C81.06 23.3339 80.9813 24.2385 80.824 25.1039C80.6667 25.9299 80.293 26.6182 79.703 27.1689C79.0737 27.6802 78.0903 27.9359 76.753 27.9359Z" fill="black"/>
</svg>
