<svg width="89" height="35" viewBox="0 0 89 35" fill="none" xmlns="http://www.w3.org/2000/svg">
<path d="M9.05801 34.6244C5.71467 34.6244 3.39401 33.523 2.09601 31.3204C0.837341 29.0784 0.208008 26.0497 0.208008 22.2344C0.208008 19.6777 0.483341 17.4554 1.03401 15.5674C1.58467 13.6794 2.50901 12.224 3.80701 11.2014C5.10501 10.1394 6.85534 9.60838 9.05801 9.60838C10.6707 9.60838 11.9687 9.84438 12.952 10.3164C13.9747 10.749 14.7613 11.2604 15.312 11.8504C15.8627 12.4404 16.2363 12.9714 16.433 13.4434C16.6297 13.876 16.728 14.0924 16.728 14.0924H16.846V9.60838H25.342V34.0344H18.144L16.846 30.7304H16.728C16.7673 30.7304 16.669 30.927 16.433 31.3204C16.197 31.7137 15.784 32.1661 15.194 32.6774C14.6433 33.1887 13.8567 33.6411 12.834 34.0344C11.8507 34.4277 10.592 34.6244 9.05801 34.6244ZM12.539 27.8394C13.8763 27.8394 14.84 27.5837 15.43 27.0724C16.0593 26.5217 16.4527 25.8137 16.61 24.9484C16.7673 24.0831 16.846 23.198 16.846 22.2934C16.846 21.3494 16.7673 20.4644 16.61 19.6384C16.4527 18.7731 16.0593 18.0847 15.43 17.5734C14.84 17.062 13.8763 16.8064 12.539 16.8064C11.2017 16.8064 10.2183 17.0817 9.58901 17.6324C8.99901 18.1437 8.62534 18.8124 8.46801 19.6384C8.31067 20.4644 8.23201 21.3494 8.23201 22.2934C8.23201 23.2374 8.31067 24.1421 8.46801 25.0074C8.62534 25.8334 8.99901 26.5217 9.58901 27.0724C10.2183 27.5837 11.2017 27.8394 12.539 27.8394Z" fill="black"/>
<path d="M30.0897 34.0344V0.817383H43.6007C47.9273 0.817383 51.3493 1.58438 53.8667 3.11838C56.384 4.65238 57.6427 7.22872 57.6427 10.8474C57.6427 13.8367 56.974 16.1574 55.6367 17.8094C54.3387 19.4614 52.5687 20.2874 50.3267 20.2874C51.428 20.2874 52.254 20.5431 52.8047 21.0544C53.3947 21.5264 53.8077 22.1557 54.0437 22.9424C54.319 23.6897 54.5353 24.4567 54.6927 25.2434C54.85 26.03 55.0663 26.7381 55.3417 27.3674C55.617 27.9574 56.0497 28.3507 56.6397 28.5474C57.269 28.7047 58.154 28.5474 59.2947 28.0754V32.5594C58.1933 33.5034 56.974 34.1131 55.6367 34.3884C54.2993 34.7031 53.021 34.6244 51.8017 34.1524C50.6217 33.7197 49.6383 32.8741 48.8517 31.6154C48.065 30.3174 47.6717 28.5671 47.6717 26.3644C47.6717 25.4204 47.593 24.5747 47.4357 23.8274C47.3177 23.0407 46.9637 22.3917 46.3737 21.8804C45.7837 21.369 44.8593 21.0347 43.6007 20.8774C42.342 20.6807 40.5917 20.6807 38.3497 20.8774V34.0344H30.0897ZM38.3497 15.0954H42.4797C44.289 15.0954 45.764 15.0757 46.9047 15.0364C48.0453 14.997 48.891 14.7414 49.4417 14.2694C50.0317 13.758 50.3267 12.8534 50.3267 11.5554C50.3267 10.1001 49.9727 9.09705 49.2647 8.54638C48.596 7.95638 47.593 7.62205 46.2557 7.54338C44.9577 7.46472 43.345 7.42538 41.4177 7.42538H38.3497V15.0954Z" fill="black"/>
<path d="M79.526 34.6244C82.8693 34.6244 85.19 33.523 86.488 31.3204C87.7467 29.0784 88.376 26.0497 88.376 22.2344C88.376 19.6777 88.1007 17.4554 87.55 15.5674C86.9993 13.6794 86.075 12.224 84.777 11.2014C83.479 10.1394 81.7287 9.60838 79.526 9.60838C77.9133 9.60838 76.6153 9.84438 75.632 10.3164C74.6093 10.749 73.8227 11.2604 73.272 11.8504C72.7213 12.4404 72.3477 12.9714 72.151 13.4434C71.9543 13.876 71.856 14.0924 71.856 14.0924H71.738V9.60838H63.242V34.0344H70.44L71.738 30.7304H71.856C71.8167 30.7304 71.915 30.927 72.151 31.3204C72.387 31.7137 72.8 32.1661 73.39 32.6774C73.9407 33.1887 74.7273 33.6411 75.75 34.0344C76.7333 34.4277 77.992 34.6244 79.526 34.6244ZM76.045 27.8394C74.7077 27.8394 73.744 27.5837 73.154 27.0724C72.5247 26.5217 72.1313 25.8137 71.974 24.9484C71.8167 24.0831 71.738 23.198 71.738 22.2934C71.738 21.3494 71.8167 20.4644 71.974 19.6384C72.1313 18.7731 72.5247 18.0847 73.154 17.5734C73.744 17.062 74.7077 16.8064 76.045 16.8064C77.3823 16.8064 78.3657 17.0817 78.995 17.6324C79.585 18.1437 79.9587 18.8124 80.116 19.6384C80.2733 20.4644 80.352 21.3494 80.352 22.2934C80.352 23.2374 80.2733 24.1421 80.116 25.0074C79.9587 25.8334 79.585 26.5217 78.995 27.0724C78.3657 27.5837 77.3823 27.8394 76.045 27.8394Z" fill="black"/>
</svg>
