<svg width="90" height="34" viewBox="0 0 90 34" fill="none" xmlns="http://www.w3.org/2000/svg">
<path d="M9.76602 33.807C6.42268 33.807 4.10202 32.7057 2.80402 30.503C1.54535 28.261 0.916016 25.2323 0.916016 21.417C0.916016 18.8603 1.19135 16.638 1.74202 14.75C2.29268 12.862 3.21702 11.4067 4.51502 10.384C5.81302 9.322 7.56335 8.791 9.76602 8.791C11.3787 8.791 12.6767 9.027 13.66 9.499C14.6827 9.93167 15.4693 10.443 16.02 11.033C16.5707 11.623 16.9444 12.154 17.141 12.626C17.3377 13.0587 17.436 13.275 17.436 13.275H17.554V8.791H26.05V33.217H18.852L17.554 29.913H17.436C17.4753 29.913 17.377 30.1097 17.141 30.503C16.905 30.8963 16.492 31.3487 15.902 31.86C15.3513 32.3713 14.5647 32.8237 13.542 33.217C12.5587 33.6103 11.3 33.807 9.76602 33.807ZM13.247 27.022C14.5843 27.022 15.548 26.7663 16.138 26.255C16.7673 25.7043 17.1607 24.9963 17.318 24.131C17.4753 23.2657 17.554 22.3807 17.554 21.476C17.554 20.532 17.4753 19.647 17.318 18.821C17.1607 17.9557 16.7673 17.2673 16.138 16.756C15.548 16.2447 14.5843 15.989 13.247 15.989C11.9097 15.989 10.9263 16.2643 10.297 16.815C9.70702 17.3263 9.33335 17.995 9.17602 18.821C9.01868 19.647 8.94002 20.532 8.94002 21.476C8.94002 22.42 9.01868 23.3247 9.17602 24.19C9.33335 25.016 9.70702 25.7043 10.297 26.255C10.9263 26.7663 11.9097 27.022 13.247 27.022Z" fill="black"/>
<path d="M30.7977 33.217V0H44.3087C48.6353 0 52.0573 0.766999 54.5747 2.301C57.092 3.835 58.3507 6.41133 58.3507 10.03C58.3507 13.0193 57.682 15.34 56.3447 16.992C55.0467 18.644 53.2767 19.47 51.0347 19.47C52.136 19.47 52.962 19.7257 53.5127 20.237C54.1027 20.709 54.5157 21.3383 54.7517 22.125C55.027 22.8723 55.2433 23.6393 55.4007 24.426C55.558 25.2127 55.7743 25.9207 56.0497 26.55C56.325 27.14 56.7577 27.5333 57.3477 27.73C57.977 27.8873 58.862 27.73 60.0027 27.258V31.742C58.9013 32.686 57.682 33.2957 56.3447 33.571C55.0073 33.8857 53.729 33.807 52.5097 33.335C51.3297 32.9023 50.3463 32.0567 49.5597 30.798C48.773 29.5 48.3797 27.7497 48.3797 25.547C48.3797 24.603 48.301 23.7573 48.1437 23.01C48.0257 22.2233 47.6717 21.5743 47.0817 21.063C46.4917 20.5517 45.5673 20.2173 44.3087 20.06C43.05 19.8633 41.2997 19.8633 39.0577 20.06V33.217H30.7977ZM39.0577 14.278H43.1877C44.997 14.278 46.472 14.2583 47.6127 14.219C48.7533 14.1797 49.599 13.924 50.1497 13.452C50.7397 12.9407 51.0347 12.036 51.0347 10.738C51.0347 9.28267 50.6807 8.27967 49.9727 7.729C49.304 7.139 48.301 6.80467 46.9637 6.726C45.6657 6.64733 44.053 6.608 42.1257 6.608H39.0577V14.278Z" fill="black"/>
<path d="M80.234 33.807C83.5774 33.807 85.898 32.7057 87.196 30.503C88.4547 28.261 89.084 25.2323 89.084 21.417C89.084 18.8603 88.8087 16.638 88.258 14.75C87.7074 12.862 86.783 11.4067 85.485 10.384C84.187 9.322 82.4367 8.791 80.234 8.791C78.6214 8.791 77.3233 9.027 76.34 9.499C75.3173 9.93167 74.5307 10.443 73.98 11.033C73.4294 11.623 73.0557 12.154 72.859 12.626C72.6623 13.0587 72.564 13.275 72.564 13.275H72.446V8.791H63.95V33.217H71.148L72.446 29.913H72.564C72.5247 29.913 72.623 30.1097 72.859 30.503C73.095 30.8963 73.508 31.3487 74.098 31.86C74.6487 32.3713 75.4353 32.8237 76.458 33.217C77.4413 33.6103 78.7 33.807 80.234 33.807ZM76.753 27.022C75.4157 27.022 74.452 26.7663 73.862 26.255C73.2327 25.7043 72.8393 24.9963 72.682 24.131C72.5247 23.2657 72.446 22.3807 72.446 21.476C72.446 20.532 72.5247 19.647 72.682 18.821C72.8393 17.9557 73.2327 17.2673 73.862 16.756C74.452 16.2447 75.4157 15.989 76.753 15.989C78.0903 15.989 79.0737 16.2643 79.703 16.815C80.293 17.3263 80.6667 17.995 80.824 18.821C80.9813 19.647 81.06 20.532 81.06 21.476C81.06 22.42 80.9813 23.3247 80.824 24.19C80.6667 25.016 80.293 25.7043 79.703 26.255C79.0737 26.7663 78.0903 27.022 76.753 27.022Z" fill="black"/>
</svg>
