<svg width="90" height="34" viewBox="0 0 90 34" fill="none" xmlns="http://www.w3.org/2000/svg">
<path d="M9.76602 33.8983C6.42268 33.8983 4.10202 32.797 2.80402 30.5943C1.54535 28.3523 0.916016 25.3236 0.916016 21.5083C0.916016 18.9516 1.19135 16.7293 1.74202 14.8413C2.29268 12.9533 3.21702 11.498 4.51502 10.4753C5.81302 9.41331 7.56335 8.88231 9.76602 8.88231C11.3787 8.88231 12.6767 9.11831 13.66 9.59031C14.6827 10.023 15.4693 10.5343 16.02 11.1243C16.5707 11.7143 16.9444 12.2453 17.141 12.7173C17.3377 13.15 17.436 13.3663 17.436 13.3663H17.554V8.88231H26.05V33.3083H18.852L17.554 30.0043H17.436C17.4753 30.0043 17.377 30.201 17.141 30.5943C16.905 30.9876 16.492 31.44 15.902 31.9513C15.3513 32.4626 14.5647 32.915 13.542 33.3083C12.5587 33.7016 11.3 33.8983 9.76602 33.8983ZM13.247 27.1133C14.5843 27.1133 15.548 26.8576 16.138 26.3463C16.7673 25.7956 17.1607 25.0876 17.318 24.2223C17.4753 23.357 17.554 22.472 17.554 21.5673C17.554 20.6233 17.4753 19.7383 17.318 18.9123C17.1607 18.047 16.7673 17.3586 16.138 16.8473C15.548 16.336 14.5843 16.0803 13.247 16.0803C11.9097 16.0803 10.9263 16.3556 10.297 16.9063C9.70702 17.4176 9.33335 18.0863 9.17602 18.9123C9.01868 19.7383 8.94002 20.6233 8.94002 21.5673C8.94002 22.5113 9.01868 23.416 9.17602 24.2813C9.33335 25.1073 9.70702 25.7956 10.297 26.3463C10.9263 26.8576 11.9097 27.1133 13.247 27.1133Z" fill="black"/>
<path d="M30.7977 33.3083V0.0913086H44.3087C48.6353 0.0913086 52.0573 0.858308 54.5747 2.39231C57.092 3.92631 58.3507 6.50264 58.3507 10.1213C58.3507 13.1106 57.682 15.4313 56.3447 17.0833C55.0467 18.7353 53.2767 19.5613 51.0347 19.5613C52.136 19.5613 52.962 19.817 53.5127 20.3283C54.1027 20.8003 54.5157 21.4296 54.7517 22.2163C55.027 22.9636 55.2433 23.7306 55.4007 24.5173C55.558 25.304 55.7743 26.012 56.0497 26.6413C56.325 27.2313 56.7577 27.6246 57.3477 27.8213C57.977 27.9786 58.862 27.8213 60.0027 27.3493V31.8333C58.9013 32.7773 57.682 33.387 56.3447 33.6623C55.0073 33.977 53.729 33.8983 52.5097 33.4263C51.3297 32.9936 50.3463 32.148 49.5597 30.8893C48.773 29.5913 48.3797 27.841 48.3797 25.6383C48.3797 24.6943 48.301 23.8486 48.1437 23.1013C48.0257 22.3146 47.6717 21.6656 47.0817 21.1543C46.4917 20.643 45.5673 20.3086 44.3087 20.1513C43.05 19.9546 41.2997 19.9546 39.0577 20.1513V33.3083H30.7977ZM39.0577 14.3693H43.1877C44.997 14.3693 46.472 14.3496 47.6127 14.3103C48.7533 14.271 49.599 14.0153 50.1497 13.5433C50.7397 13.032 51.0347 12.1273 51.0347 10.8293C51.0347 9.37398 50.6807 8.37098 49.9727 7.82031C49.304 7.23031 48.301 6.89597 46.9637 6.81731C45.6657 6.73864 44.053 6.69931 42.1257 6.69931H39.0577V14.3693Z" fill="black"/>
<path d="M80.234 33.8983C83.5773 33.8983 85.898 32.797 87.196 30.5943C88.4547 28.3523 89.084 25.3236 89.084 21.5083C89.084 18.9516 88.8087 16.7293 88.258 14.8413C87.7074 12.9533 86.783 11.498 85.485 10.4753C84.187 9.41331 82.4367 8.88231 80.234 8.88231C78.6214 8.88231 77.3233 9.11831 76.34 9.59031C75.3173 10.023 74.5307 10.5343 73.98 11.1243C73.4294 11.7143 73.0557 12.2453 72.859 12.7173C72.6624 13.15 72.564 13.3663 72.564 13.3663H72.446V8.88231H63.95V33.3083H71.148L72.446 30.0043H72.564C72.5247 30.0043 72.623 30.201 72.859 30.5943C73.095 30.9876 73.508 31.44 74.098 31.9513C74.6487 32.4626 75.4353 32.915 76.458 33.3083C77.4413 33.7016 78.7 33.8983 80.234 33.8983ZM76.753 27.1133C75.4157 27.1133 74.452 26.8576 73.862 26.3463C73.2327 25.7956 72.8393 25.0876 72.682 24.2223C72.5247 23.357 72.446 22.472 72.446 21.5673C72.446 20.6233 72.5247 19.7383 72.682 18.9123C72.8393 18.047 73.2327 17.3586 73.862 16.8473C74.452 16.336 75.4157 16.0803 76.753 16.0803C78.0903 16.0803 79.0737 16.3556 79.703 16.9063C80.293 17.4176 80.6667 18.0863 80.824 18.9123C80.9813 19.7383 81.06 20.6233 81.06 21.5673C81.06 22.5113 80.9813 23.416 80.824 24.2813C80.6667 25.1073 80.293 25.7956 79.703 26.3463C79.0737 26.8576 78.0903 27.1133 76.753 27.1133Z" fill="black"/>
</svg>
